<svg xmlns="http://www.w3.org/2000/svg" viewBox="0 0 21.33 24"><path d="M4.88 4.19a.8.8 0 01.8-.8h10a.8.8 0 010 1.6H5.71a.8.8 0 01-.83-.8zm.19 4.48h11.2a.81.81 0 00.8-.8.82.82 0 00-.8-.8H5.07a.8.8 0 00-.8.8.82.82 0 00.8.8zm16.26 6.48v8a.8.8 0 01-.8.8H.8a.8.8 0 01-.8-.8V15L2.19.69A.8.8 0 013 0h15.32a.8.8 0 01.8.69L21.33 15v.11zm-19.57-.8h4.91a.8.8 0 01.8.8 3.2 3.2 0 006.4 0 .8.8 0 01.8-.8h4.9L17.63 1.63H3.68zm18 1.62h-4.32a4.84 4.84 0 01-9.55 0H1.63v6.43h18.1V16zm-2-4.48a.8.8 0 00-.8-.8H4.45a.8.8 0 100 1.6h12.43a.77.77 0 00.8-.8z" fill="#ef5742" data-name="Layer 2"/></svg>