<svg xmlns="http://www.w3.org/2000/svg" viewBox="0 0 21.78 24.1"><defs><style>.cls-1{fill:#ef5742}</style></defs><g id="Layer_2" data-name="Layer 2"><g id="Layer_2-2" data-name="Layer 2"><path class="cls-1" d="M2.72 24.1A2.71 2.71 0 010 21.38V5a2.72 2.72 0 012.72-2.68h6.7v1.6h-6.7A1.12 1.12 0 001.6 5v16.38a1.14 1.14 0 00.33.8 1.1 1.1 0 00.79.32l12.67-.07a1.12 1.12 0 001.11-1.12v-8.8h1.6v8.8A2.73 2.73 0 0115.4 24l-12.67.1z"/><path class="cls-1" d="M5.05 15.92h8.06v1.6H5.05zM5.05 12.48h8.06v1.6H5.05zM5.05 8.92h8.06v1.6H5.05zM12.17 3.8h9.6v2h-9.6z"/><path class="cls-1" d="M15.98 0h2v9.6h-2z"/></g></g></svg>